<svg id="Layer_3" enable-background="new 0 0 64 64" height="40" viewBox="0 0 64 64" width="40"
     xmlns="http://www.w3.org/2000/svg" xmlns:xlink="http://www.w3.org/1999/xlink">
    <linearGradient id="SVGID_1_" gradientUnits="userSpaceOnUse" x1="32.349" x2="32.349" y1="62.302" y2="1">
        <stop offset="0" stop-color="#9f2fff"/>
        <stop offset="1" stop-color="#0bb1d3"/>
    </linearGradient>
    <path d="m58.74 11.562 1.362-2.33-5.334-5.333-2.331 1.361c-1.256-.721-2.591-1.275-3.981-1.653l-.685-2.607h-7.543l-.685 2.606c-1.391.377-2.726.932-3.981 1.653l-2.331-1.361-5.334 5.333 1.362 2.33c-.722 1.256-1.275 2.591-1.653 3.982l-2.606.686v7.543l2.229.586-22.145 22.144-3.386 15.8 15.8-3.386 22.145-22.145.586 2.229h7.543l.685-2.606c1.391-.378 2.726-.932 3.981-1.653l2.331 1.362 5.334-5.334-1.362-2.33c.722-1.256 1.275-2.591 1.653-3.982l2.606-.686v-7.543l-2.606-.685c-.378-1.39-.932-2.725-1.654-3.981zm-40.033 35.145 12.565-12.564 1.959 1.96 2.331-1.362c.715.411 1.459.761 2.221 1.062l-20.783 20.783-4.086-4.086 1.793-1.793-1.414-1.414-1.793 1.793-4.086-4.086 20.784-20.783c.301.763.651 1.506 1.062 2.221l-1.362 2.33 1.96 1.961-12.565 12.564zm-3.714 10.7-4.259.913-5.054-5.054.913-4.259zm-9.812-1.812 3.224 3.224-4.103.879zm55.819-33.366-2.269.596-.137.587c-.37 1.588-.997 3.099-1.864 4.492l-.319.512 1.186 2.029-3.152 3.152-2.029-1.185-.512.318c-1.394.868-2.904 1.495-4.491 1.865l-.588.137-.596 2.268h-4.457l-.596-2.269-.588-.137c-1.587-.37-3.098-.997-4.491-1.865l-.512-.318-2.029 1.185-3.152-3.152 1.186-2.029-.319-.512c-.867-1.393-1.494-2.904-1.864-4.492l-.137-.587-2.27-.595v-4.457l2.269-.596.137-.587c.37-1.588.997-3.099 1.864-4.492l.319-.512-1.186-2.029 3.152-3.152 2.029 1.185.512-.318c1.394-.867 2.905-1.494 4.491-1.864l.588-.137.596-2.27h4.457l.596 2.269.588.137c1.586.37 3.098.997 4.491 1.864l.512.318 2.029-1.185 3.152 3.152-1.186 2.029.319.512c.867 1.393 1.494 2.904 1.864 4.492l.137.587 2.27.596zm-17-15.229c-7.168 0-13 5.832-13 13s5.832 13 13 13 13-5.832 13-13-5.832-13-13-13zm0 24c-6.065 0-11-4.935-11-11s4.935-11 11-11 11 4.935 11 11-4.935 11-11 11zm0-18c-3.859 0-7 3.14-7 7s3.141 7 7 7 7-3.14 7-7-3.141-7-7-7zm0 12c-2.757 0-5-2.243-5-5s2.243-5 5-5 5 2.243 5 5-2.243 5-5 5zm-27.707 21.293 1.414 1.414-2 2-1.414-1.414zm25-4 1.414 1.414-11 11-1.414-1.414zm-11.586 14.414-2 2-1.414-1.414 2-2zm8-2-1.414-1.414 8-8 1.414 1.414zm-5.414 2.586 2-2 1.414 1.414-2 2zm-23-25 11-11 1.414 1.414-11 11zm-4 4 2-2 1.414 1.414-2 2zm13.414-16.586-8 8-1.414-1.414 8-8zm-10 10-2 2-1.414-1.414 2-2z"
          fill="url(#SVGID_1_)"/>
</svg>
